<svg width="186" height="75" viewBox="0 0 186 75" fill="none" xmlns="http://www.w3.org/2000/svg">
<path d="M172.341 48.4171H167.28C166.233 48.4171 165.359 47.7237 165.359 46.857C165.359 45.8169 166.233 45.2968 167.28 45.2968H176.528L178.624 40.62H167.28C162.569 40.62 159.95 43.39 159.95 47.0303C159.95 50.6706 162.569 53.0939 166.582 53.0939H171.642C172.69 53.0939 173.563 53.7873 173.563 54.654C173.563 55.5208 172.865 56.2142 171.642 56.2142H160.474V60.891H171.642C176.354 60.891 178.973 58.121 178.973 54.3074C178.973 50.4937 176.528 48.4171 172.341 48.4171ZM151.924 48.4171H146.864C145.816 48.4171 144.943 47.7237 144.943 46.857C144.943 45.8169 145.816 45.2968 146.864 45.2968H156.111L158.207 40.62H146.864C142.152 40.62 139.537 43.39 139.537 47.0303C139.537 50.6706 142.152 53.0939 146.169 53.0939H151.229C152.277 53.0939 153.15 53.7873 153.15 54.654C153.15 55.5208 152.452 56.2142 151.229 56.2142H140.06V60.891H151.229C155.941 60.891 158.556 58.121 158.556 54.3074C158.731 50.4973 156.29 48.4171 151.924 48.4171ZM119.644 61.0607H137.095V56.3839H125.228V53.0939H136.921V48.4171H125.228V45.1271H137.095V40.4503H119.644V61.0643V61.0607ZM108.824 49.2839H103.065V45.1271H108.824C110.396 45.1271 111.269 46.1672 111.269 47.2073C111.269 48.4207 110.396 49.2875 108.824 49.2875M116.85 47.0339C116.85 43.0505 114.056 40.4503 109.519 40.4503H97.4771V61.0643H103.062V53.9643H105.157L111.44 61.0643H118.072L111.265 53.6176C114.754 52.7508 116.85 50.3276 116.85 47.0339ZM87.0104 49.6342H81.0768V45.1307H87.0104C88.5821 45.1307 89.4552 46.1708 89.4552 47.3842C89.4552 48.5977 88.7567 49.6378 87.0104 49.6378M87.7089 40.4575H75.667V61.0716H81.2514V54.3146H87.7089C92.4202 54.3146 95.2142 51.3713 95.2142 47.3842C95.0396 43.2275 92.2492 40.4539 87.7089 40.4539M74.6229 40.4539H67.4705L62.2353 46.6909L56.8256 40.4539H49.4949L58.7428 50.6743L49.3203 61.0679H56.4727L62.0571 54.4843L67.6415 61.0679H74.9685L65.546 50.5009L74.6192 40.4539H74.6229ZM31.1737 61.0679H48.6218V56.3911H36.5798V53.1011H48.2725V48.4243H36.5798V45.1343H48.6218V40.4575H31.1737V61.0716V61.0679ZM170.245 26.5897L161.696 14.1194H154.714V34.5601H160.299V21.5662L169.023 34.5565H175.655V14.1194H170.245V26.5933V26.5897ZM138.136 25.8963L141.101 18.9659L144.066 25.8963H138.132H138.136ZM137.437 14.1158L128.364 34.7298H134.472L136.219 30.5731H145.816L147.562 34.7298H153.845L144.597 14.1194H137.441L137.437 14.1158ZM119.291 24.5095V24.1628C119.291 21.0461 121.037 18.9659 124.526 18.9659H130.634V13.946H124.002C117.195 13.946 113.706 18.2761 113.706 23.993V24.3397C113.706 30.75 117.719 34.3867 123.827 34.3867H125.748L128.015 29.7099H124.701C121.386 29.8833 119.291 27.9764 119.291 24.5131M105.332 34.5601H110.916V14.1194H105.332V34.5601ZM94.5121 22.7796H88.7531V18.6228H94.5121C96.0837 18.6228 96.9569 19.6629 96.9569 20.703C96.9569 21.9165 96.0837 22.7832 94.5121 22.7832M102.538 20.703C102.538 16.7196 99.7436 14.1194 95.2106 14.1194H83.1687V34.7334H88.7531V27.46H90.8486L97.1315 34.5637H103.938L96.9605 27.1169C100.449 26.4235 102.545 23.8269 102.545 20.7066M62.0607 34.5637H79.5088V29.8869H67.6415V26.5969H79.1595V21.9201H67.6415V18.6301H79.5088V14.1194H62.0607V34.5601V34.5637ZM44.438 26.94L39.7231 14.1194H31.1737V34.5601H36.5835V19.8363L41.9932 34.5601H46.8791L52.2889 19.8363V34.5601H57.8733V14.1194H49.1493L44.438 26.9363V26.94ZM14.4241 25.8999L17.3891 18.9695L20.3541 25.8999H14.4205H14.4241ZM13.722 14.1194L4.64868 34.5601H10.757L12.5032 30.4033H22.1004L23.8467 34.5601H30.1296L20.878 14.1194H13.722Z" fill="#006FCF"/>
</svg>
