<svg width="91" height="44" viewBox="0 0 91 44" fill="none" xmlns="http://www.w3.org/2000/svg">
<path d="M0 13H29V31H0V13Z" fill="#012169"/>
<path d="M3.39844 13L14.4547 19.7875L25.4656 13H29V15.325L18.125 22.0375L29 28.7125V31H25.375L14.5 24.2875L3.67031 31H0V28.75L10.8297 22.075L0 15.4V13H3.39844Z" fill="white"/>
<path d="M19.2125 23.5375L29 29.5V31L16.7203 23.5375H19.2125ZM10.875 24.2875L11.1469 25.6L2.44688 31H0L10.875 24.2875ZM29 13V13.1125L17.7172 20.1625L17.8078 18.5125L26.7344 13H29ZM0 13L10.8297 19.6H8.11094L0 14.575V13Z" fill="#C8102E"/>
<path d="M10.9203 13V31H18.1703V13H10.9203ZM0 19V25H29V19H0Z" fill="white"/>
<path d="M0 20.2375V23.8375H29V20.2375H0ZM12.3703 13V31H16.7203V13H12.3703Z" fill="#C8102E"/>
<path d="M43.9653 28.5H37.9009V17.792H43.9653V19.2715H39.6587V22.1792H43.6943V23.6514H39.6587V27.0132H43.9653V28.5ZM55.2153 28.5H53.0547L47.8105 19.9526H47.7446C47.7642 20.2407 47.7812 20.5459 47.7959 20.8682C47.8154 21.1904 47.8301 21.5225 47.8398 21.8643C47.8545 22.2061 47.8667 22.5527 47.8765 22.9043V28.5H46.2798V17.792H48.4258L53.6626 26.2808H53.7139C53.7041 26.0317 53.6919 25.7461 53.6772 25.4238C53.6626 25.1016 53.6479 24.7695 53.6333 24.4277C53.6235 24.0811 53.6162 23.7466 53.6113 23.4243V17.792H55.2153V28.5ZM62.3491 22.6846H66.3481V28.0605C65.7866 28.2461 65.2056 28.3901 64.605 28.4927C64.0044 28.5952 63.3306 28.6465 62.5835 28.6465C61.4946 28.6465 60.5718 28.4316 59.8149 28.002C59.063 27.5674 58.4917 26.9399 58.1011 26.1196C57.7104 25.2944 57.5151 24.3008 57.5151 23.1387C57.5151 22.0205 57.7324 21.0513 58.167 20.231C58.6016 19.4058 59.2339 18.7686 60.064 18.3193C60.894 17.8652 61.8999 17.6382 63.0815 17.6382C63.6626 17.6382 64.2241 17.6968 64.7661 17.814C65.313 17.9263 65.8135 18.0825 66.2676 18.2827L65.6523 19.7329C65.291 19.562 64.8857 19.418 64.4365 19.3008C63.9873 19.1836 63.521 19.125 63.0376 19.125C62.271 19.125 61.6094 19.291 61.0527 19.623C60.501 19.9551 60.0762 20.4238 59.7783 21.0293C59.4805 21.6299 59.3315 22.3403 59.3315 23.1606C59.3315 23.9565 59.4512 24.6548 59.6904 25.2554C59.9297 25.856 60.3032 26.3247 60.811 26.6616C61.3237 26.9937 61.9854 27.1597 62.7959 27.1597C63.2012 27.1597 63.5454 27.1377 63.8286 27.0938C64.1118 27.0498 64.373 27.001 64.6123 26.9473V24.186H62.3491V22.6846Z" fill="#282828"/>
<mask id="mask0_0_1006" style="mask-type:alpha" maskUnits="userSpaceOnUse" x="67" y="10" width="24" height="24">
<rect x="67" y="10" width="24" height="24" fill="#D9D9D9"/>
</mask>
<g mask="url(#mask0_0_1006)">
</g>
<mask id="mask1_0_1006" style="mask-type:alpha" maskUnits="userSpaceOnUse" x="67" y="10" width="24" height="24">
<rect x="67" y="10" width="24" height="24" fill="#D9D9D9"/>
</mask>
<g mask="url(#mask1_0_1006)">
<path d="M78.9998 24.975C78.8665 24.975 78.7415 24.9542 78.6248 24.9125C78.5081 24.8709 78.3998 24.8 78.2998 24.7L73.6998 20.1C73.5165 19.9167 73.4248 19.6834 73.4248 19.4C73.4248 19.1167 73.5165 18.8834 73.6998 18.7C73.8831 18.5167 74.1165 18.425 74.3998 18.425C74.6831 18.425 74.9165 18.5167 75.0998 18.7L78.9998 22.6L82.8998 18.7C83.0831 18.5167 83.3165 18.425 83.5998 18.425C83.8831 18.425 84.1165 18.5167 84.2998 18.7C84.4831 18.8834 84.5748 19.1167 84.5748 19.4C84.5748 19.6834 84.4831 19.9167 84.2998 20.1L79.6998 24.7C79.5998 24.8 79.4915 24.8709 79.3748 24.9125C79.2581 24.9542 79.1331 24.975 78.9998 24.975Z" fill="#292929"/>
</g>
</svg>
